<svg id="Layer_1" data-name="Layer 1" xmlns="http://www.w3.org/2000/svg" viewBox="0 0 1801.15 900.57"><defs><style>.cls-1{fill:#fff;}.cls-2{fill:#0a1a5c;}.cls-3{fill:#00a9a1;}.cls-4{fill:#0095da;}.cls-5{fill:#005baa;}</style></defs><rect class="cls-1" width="1801.15" height="900.57"/><path class="cls-2" d="M414.35,653.14a177.75,177.75,0,0,1-45.76-6,169.48,169.48,0,0,1-41.72-17.06A138.79,138.79,0,0,1,294.1,604.4l47.13-47.68a91.67,91.67,0,0,0,30.87,21.95,95.8,95.8,0,0,0,39,7.85q14.63,0,22.47-4.34t7.87-11.91c0-6.5-3.18-11.46-9.48-14.89a115.56,115.56,0,0,0-24.1-9.21q-14.64-4.08-30.89-8.94a139,139,0,0,1-30.88-13.55,67.6,67.6,0,0,1-23.82-24.1q-9.22-15.45-9.22-39.28,0-25.44,13-44.13t36.83-29.52q23.82-10.84,55.8-10.84,33.57,0,62,11.64T527,421.85L479.9,469.51Q467.43,454.9,452,448.94a83.29,83.29,0,0,0-30.07-6q-14.08,0-21.12,4.06t-7,11.63c0,5.43,3.07,9.75,9.21,13s14.07,6.16,23.83,8.66,20.05,5.61,30.88,9.22a142.17,142.17,0,0,1,30.86,14.62,72.52,72.52,0,0,1,23.84,24.64q9.21,15.43,9.21,40.37,0,38.47-29,61.2T414.35,653.14Z"/><path class="cls-2" d="M725.24,383.39v21.77a95.72,95.72,0,0,0-24.65-16.89Q679.19,378,652.65,378q-36.3,0-64.73,17.87T543,444.6Q526.45,475.49,526.44,515T543,585.44q16.53,30.88,45,48.73t64.73,17.89q26.54,0,48.21-10.3a93.66,93.66,0,0,0,24.38-16.5v21.38h81.25V383.39ZM669.45,577.31a57.86,57.86,0,0,1-30.34-8.12A56.75,56.75,0,0,1,618,547q-7.59-14.07-7.58-32,0-18.42,7.85-32.5a57.44,57.44,0,0,1,21.13-21.93q13.27-7.86,30.61-7.87t30.6,7.87a53.71,53.71,0,0,1,20.58,21.93q7.32,14.09,7.31,32.5,0,27.09-16.25,44.68T669.45,577.31Z"/><path class="cls-2" d="M990.49,256.36q-20.31-8.91-47.4-8.93-35.75,0-61.75,14.91A105,105,0,0,0,841,303q-14.37,25.74-14.36,57.68v286h82.88V453.81h38.58V383.39H909.51V357.93q0-16.79,9.75-26.53t26.54-9.75a39.39,39.39,0,0,1,16,3A40,40,0,0,1,974,333l52-52A111.44,111.44,0,0,0,990.49,256.36Z"/><path class="cls-2" d="M1481.85,383.66q-14.37-5.69-33.31-5.68-43.33,0-67.72,25.45v-20H1298V646.64h82.87V502q0-25.47,12.2-38.2t32.77-12.71a49.45,49.45,0,0,1,18.42,3.24,36.2,36.2,0,0,1,13.54,9.21l49.29-62.3A67.26,67.26,0,0,0,1481.85,383.66Z"/><rect class="cls-3" x="1079.99" y="506.22" width="82.52" height="141.51"/><polygon class="cls-4" points="957.42 435.44 998.67 363.99 1121.24 434.74 1079.97 506.22 957.42 435.44"/><polygon class="cls-5" points="1162.51 506.22 1121.24 434.74 1243.8 363.99 1285.05 435.44 1162.51 506.22"/></svg>